<mxfile host="app.diagrams.net" modified="2022-01-16T15:46:59.269Z" agent="5.0 (Macintosh; Intel Mac OS X 10_15_7) AppleWebKit/537.36 (KHTML, like Gecko) Chrome/97.0.4692.71 Safari/537.36" etag="01Vuwf4ulpcdvniiTHhN" version="16.1.0" type="github">
  <diagram id="ex9WEiwyAv-wx1R0gR59" name="Page-1">
    <mxGraphModel dx="1040" dy="773" grid="1" gridSize="10" guides="1" tooltips="1" connect="1" arrows="1" fold="1" page="1" pageScale="1" pageWidth="827" pageHeight="1169" math="0" shadow="0">
      <root>
        <mxCell id="0" />
        <mxCell id="1" parent="0" />
        <mxCell id="giDuoqkWzdH7BKuw716A-1" value="&lt;span style=&quot;font-size: 32px&quot;&gt;Software&amp;nbsp;&lt;br&gt;features&lt;br&gt;&lt;/span&gt;" style="rounded=0;whiteSpace=wrap;html=1;" vertex="1" parent="1">
          <mxGeometry x="150" y="130" width="190" height="110" as="geometry" />
        </mxCell>
        <mxCell id="giDuoqkWzdH7BKuw716A-2" value="&lt;span style=&quot;font-size: 26px&quot;&gt;Private bidding to investor&lt;/span&gt;" style="rounded=1;whiteSpace=wrap;html=1;fontSize=32;" vertex="1" parent="1">
          <mxGeometry x="210" y="260" width="190" height="110" as="geometry" />
        </mxCell>
        <mxCell id="giDuoqkWzdH7BKuw716A-3" value="&lt;span style=&quot;font-size: 26px&quot;&gt;Listing of cars&lt;/span&gt;" style="rounded=1;whiteSpace=wrap;html=1;fontSize=32;" vertex="1" parent="1">
          <mxGeometry x="210" y="390" width="190" height="110" as="geometry" />
        </mxCell>
        <mxCell id="giDuoqkWzdH7BKuw716A-4" value="&lt;span style=&quot;font-size: 26px&quot;&gt;phone a friend&lt;/span&gt;" style="rounded=1;whiteSpace=wrap;html=1;fontSize=32;" vertex="1" parent="1">
          <mxGeometry x="210" y="520" width="190" height="110" as="geometry" />
        </mxCell>
        <mxCell id="giDuoqkWzdH7BKuw716A-5" value="&lt;span style=&quot;font-size: 26px&quot;&gt;Trip advisor&lt;/span&gt;" style="rounded=1;whiteSpace=wrap;html=1;fontSize=32;" vertex="1" parent="1">
          <mxGeometry x="210" y="650" width="190" height="110" as="geometry" />
        </mxCell>
        <mxCell id="giDuoqkWzdH7BKuw716A-6" value="&lt;span style=&quot;font-size: 26px&quot;&gt;Group buy&lt;/span&gt;" style="rounded=1;whiteSpace=wrap;html=1;fontSize=32;" vertex="1" parent="1">
          <mxGeometry x="210" y="780" width="190" height="110" as="geometry" />
        </mxCell>
      </root>
    </mxGraphModel>
  </diagram>
</mxfile>
